<?xml version="1.0" encoding="UTF-8"?>
<svg xmlns="http://www.w3.org/2000/svg" id="ads_click_24dp" width="30" height="30" viewBox="0 0 30 30">
  <rect id="Rectangle_473" data-name="Rectangle 473" width="30" height="30" fill="none"></rect>
  <path id="Tracé_5602" data-name="Tracé 5602" d="M14.58,22.718a7.772,7.772,0,1,1,8.136-8.137L20,13.765A5.18,5.18,0,1,0,13.764,20Zm13.331-7.761c0,.389-.013.777-.052,1.166l-2.552-.764c.013-.13.013-.272.013-.4A10.365,10.365,0,1,0,14.956,25.323c.13,0,.272,0,.4-.013l.764,2.553c-.389.039-.777.052-1.166.052A12.957,12.957,0,1,1,27.911,14.957Zm-4.884,5.52,2.941-.985a.647.647,0,0,0-.013-1.231l-9.846-2.954a.644.644,0,0,0-.8.8l2.954,9.847a.643.643,0,0,0,1.231.013l.985-2.941L25.54,28.1a.641.641,0,0,0,.92,0l1.645-1.646a.642.642,0,0,0,0-.92Z" fill="#100711"></path>
</svg>
