<?xml version="1.0" encoding="UTF-8"?>
<svg xmlns="http://www.w3.org/2000/svg" id="assignment_icon" width="31.987" height="31.987" viewBox="0 0 31.987 31.987">
  <path id="Tracé_5563" data-name="Tracé 5563" d="M0,0H31.987V31.987H0Z" fill="none"></path>
  <path id="Tracé_5564" data-name="Tracé 5564" d="M24.325,3.666H18.754a3.983,3.983,0,0,0-7.517,0H5.666A2.673,2.673,0,0,0,3,6.331V24.99a2.673,2.673,0,0,0,2.666,2.666H24.325A2.673,2.673,0,0,0,26.99,24.99V6.331A2.673,2.673,0,0,0,24.325,3.666Zm-9.33,0A1.333,1.333,0,1,1,13.662,5,1.337,1.337,0,0,1,15,3.666ZM15,9a4,4,0,1,1-4,4A3.993,3.993,0,0,1,15,9Zm8,15.994H7V23.124c0-2.666,5.331-4.132,8-4.132s8,1.466,8,4.132Z" transform="translate(0.999 0.333)" fill="#100711"></path>
</svg>
