<?xml version="1.0" encoding="UTF-8"?>
<svg xmlns="http://www.w3.org/2000/svg" id="business_icon" width="31.987" height="31.987" viewBox="0 0 31.987 31.987">
  <path id="Tracé_5559" data-name="Tracé 5559" d="M0,0H31.987V31.987H0Z" fill="none"></path>
  <path id="Tracé_5560" data-name="Tracé 5560" d="M16.661,20.326H14a1.337,1.337,0,0,1-1.333-1.333H3.346v5.331A2.673,2.673,0,0,0,6.012,26.99H24.658a2.673,2.673,0,0,0,2.666-2.666V18.994h-9.33A1.337,1.337,0,0,1,16.661,20.326Zm9.33-12H20.659A5.331,5.331,0,1,0,10,8.331H4.666A2.673,2.673,0,0,0,2,11v4a2.656,2.656,0,0,0,2.666,2.666h8V16.328A1.337,1.337,0,0,1,14,15h2.666a1.337,1.337,0,0,1,1.333,1.333v1.333h8A2.673,2.673,0,0,0,28.656,15V11A2.673,2.673,0,0,0,25.99,8.331Zm-13.328,0a2.666,2.666,0,1,1,5.331,0H12.662Z" transform="translate(0.666 0.998)" fill="#100711"></path>
</svg>
