<?xml version="1.0" encoding="UTF-8"?>
<svg xmlns="http://www.w3.org/2000/svg" id="flag_icon" width="31.987" height="31.987" viewBox="0 0 31.987 31.987">
  <path id="Tracé_5565" data-name="Tracé 5565" d="M0,0H31.987V31.987H0Z" fill="none"></path>
  <path id="Tracé_5566" data-name="Tracé 5566" d="M17.528,6.666l-.32-1.6A1.33,1.33,0,0,0,15.9,4H6.333A1.337,1.337,0,0,0,5,5.333V25.325a1.333,1.333,0,0,0,2.666,0v-8h7.464l.32,1.6a1.317,1.317,0,0,0,1.306,1.066h6.9a1.337,1.337,0,0,0,1.333-1.333V8a1.337,1.337,0,0,0-1.333-1.333Z" transform="translate(1.664 1.331)" fill="#100711"></path>
</svg>
