<?xml version="1.0" encoding="UTF-8"?>
<svg xmlns="http://www.w3.org/2000/svg" id="pie_chart_icon" width="31.987" height="31.987" viewBox="0 0 31.987 31.987">
  <path id="Tracé_5561" data-name="Tracé 5561" d="M0,0H31.987V31.987H0Z" fill="none"></path>
  <path id="Tracé_5562" data-name="Tracé 5562" d="M14,3.514V27.025a1.33,1.33,0,0,1-1.613,1.306,13.407,13.407,0,0,1,0-26.123A1.33,1.33,0,0,1,14,3.514Zm2.706,0v9.076a1.337,1.337,0,0,0,1.333,1.333h9.05A1.336,1.336,0,0,0,28.389,12.3,13.388,13.388,0,0,0,18.327,2.208,1.336,1.336,0,0,0,16.7,3.514Zm0,14.434v9.076a1.336,1.336,0,0,0,1.626,1.306A13.4,13.4,0,0,0,28.4,18.228,1.348,1.348,0,0,0,27.1,16.6h-9.05A1.36,1.36,0,0,0,16.7,17.948Z" transform="translate(0.666 0.724)" fill="#100711"></path>
</svg>
