<?xml version="1.0" encoding="UTF-8"?>
<svg xmlns="http://www.w3.org/2000/svg" id="query_stats_24dp" width="30" height="30" viewBox="0 0 30 30">
  <rect id="Rectangle_472" data-name="Rectangle 472" width="30" height="30" fill="none"></rect>
  <g id="Groupe_971" data-name="Groupe 971" transform="translate(1.348 2.437)">
    <path id="Tracé_5601" data-name="Tracé 5601" d="M25.1,23.245a5.744,5.744,0,1,0-4.883,2.738,5.632,5.632,0,0,0,3.063-.908L26.37,28.2a1.281,1.281,0,0,0,1.82,0h0a1.32,1.32,0,0,0,0-1.843Zm-4.871.143a3.245,3.245,0,1,1,3.2-3.245A3.226,3.226,0,0,1,20.231,23.388Zm-.461-11.032a7.467,7.467,0,0,0-2.692.584l-.7-1.077-3.948,6.5a1.273,1.273,0,0,1-2.064.169L7.644,15.328,3.722,21.688a1.281,1.281,0,0,1-1.846.363h0a1.313,1.313,0,0,1-.333-1.739L6.388,12.46A1.279,1.279,0,0,1,8.451,12.3l2.7,3.193,4.076-6.71a1.268,1.268,0,0,1,2.153-.039Zm3.32.649a7.514,7.514,0,0,0-2.628-.636L26.28,3.038a1.266,1.266,0,0,1,1.833-.35h0a1.3,1.3,0,0,1,.333,1.739Z" transform="translate(-1.348 -2.437)" fill="#100711"></path>
  </g>
</svg>
