<svg xmlns="http://www.w3.org/2000/svg" xmlns:xlink="http://www.w3.org/1999/xlink" width="26.431" height="29.734" viewBox="0 0 26.431 29.734">
  <defs>
    <clipPath id="clip-path">
      <rect id="Rectangle_138" data-name="Rectangle 138" width="26.431" height="29.734" fill="none"/>
    </clipPath>
  </defs>
  <g id="Groupe_108" data-name="Groupe 108" transform="translate(0 0)">
    <g id="Groupe_107" data-name="Groupe 107" transform="translate(0 0)" clip-path="url(#clip-path)">
      <path id="Tracé_2225" data-name="Tracé 2225" d="M25.366,1.616C24.587.579,23.376.411,22.194.185a.449.449,0,0,0-.548-.149L21.554.07a.51.51,0,0,0-.319.118L16.987,1.756a.551.551,0,0,0-.307.267A4.621,4.621,0,0,0,15.441,3.74a.688.688,0,0,0-.265.317L10.1,16.282,7.159,9.963A.627.627,0,0,0,7.122,9.9a.5.5,0,0,0-.262-.372A4.808,4.808,0,0,0,.034,12.085a.46.46,0,0,0,.217.59.594.594,0,0,0,.021.127c1.211,4.4,3.272,8.572,5.116,12.731,1.088,2.454,3.269,5.65,6.258,3.482a.56.56,0,0,0,.225-.341.5.5,0,0,0,.631.071c1.5-.9,3.095-1.648,4.6-2.552a.515.515,0,0,0,.25-.336A.47.47,0,0,0,17.6,25.6c2.977-6.384,6.065-12.7,8.639-19.26a.488.488,0,0,0,.028-.29.547.547,0,0,0,.069-.176,5.642,5.642,0,0,0-.974-4.262m-.9,6.2L23.244,5.675a2.021,2.021,0,0,0,.065-1,2.765,2.765,0,0,0-1.317-1.6c0-.006,0-.012-.008-.017L20.79,1.525l.6-.221a19.848,19.848,0,0,1,3.6,5.029.259.259,0,0,0,.051.065q-.281.711-.572,1.418m-.725,1.743L22.478,7.392c.162-.337.351-.69.513-1.047L24.2,8.467c-.151.365-.308.728-.463,1.091m-.517,1.22L21.912,8.716l.189-.448a.562.562,0,0,0,.094-.185c0-.016.012-.034.017-.051l1.261,2.162c-.083.195-.164.391-.248.585m-.619,1.409-1.3-2.041c.115-.271.231-.541.346-.811l1.306,2.052c-.117.267-.235.534-.353.8m-.586,1.322-1.287-2.022c.1-.242.207-.484.311-.726l1.241,1.951a.274.274,0,0,0,.061.064c-.109.245-.217.49-.327.734m-.682,1.5L20,13.173c.156-.357.314-.714.469-1.072l1.278,2.008q-.2.452-.41.9m-.708,1.541-1.365-1.706c.162-.363.32-.728.48-1.091l1.332,1.832c-.148.322-.3.644-.447.966m-.662,1.429a5.112,5.112,0,0,0-1.377-1.645c.14-.31.282-.619.421-.929l1.36,1.7c-.135.291-.269.582-.4.873m-.67,1.429-1.149-1.856a.282.282,0,0,0-.074-.079c.1-.208.189-.417.284-.625a4.441,4.441,0,0,1,1.306,1.779l-.367.781m-.757,1.611-1.153-1.737a.264.264,0,0,0-.118-.1c.179-.379.36-.758.537-1.138L18.89,19.8a.26.26,0,0,0,.168.122l-.517,1.1m-.724,1.538-1.3-1.793q.253-.52.5-1.044l1.249,1.882-.45.955m-2.112,3.158L14.588,24.6c.131-.253.263-.505.392-.758a.236.236,0,0,0,.034.029,2.8,2.8,0,0,1,1.274,1.513q-.289.17-.582.333m-.95.521-.67-.67c.08-.151.156-.3.236-.455L15.2,26l-.449.242m-.943-.163.436.436q-.479.255-.956.514c.173-.316.349-.632.52-.95M16.7,24.936a3.359,3.359,0,0,0-1.412-1.54.274.274,0,0,0-.069-.022q.214-.421.424-.843l1.243,1.953c0,.008.012.011.017.018l-.2.435M20.251,1.724l.591.76-.2-.082a7.371,7.371,0,0,0-1.282-.348l.894-.33m2.975-.231,2.1,3.148a3.638,3.638,0,0,1-.049.943.571.571,0,0,0-.01.1,20.275,20.275,0,0,0-3.144-4.4,9.308,9.308,0,0,1,1.1.218m1.749,1.629L24.228,2c.042.036.087.066.126.107a3.212,3.212,0,0,1,.621,1.013M11.089,28.062c-3.449,2.5-6.071-6.17-6.879-7.971a52.906,52.906,0,0,1-2.875-7.583.526.526,0,0,0-.175-.277A3.693,3.693,0,0,1,6.17,10.415a.633.633,0,0,0,.037.105L9.546,17.7a.511.511,0,0,0,.917,0,.57.57,0,0,0,.377-.337L15.606,5.876a.567.567,0,0,0,.247-.285c.068-.166.162-.419.278-.7l.13-.13a.547.547,0,0,0,.139-.493,2.947,2.947,0,0,1,1.026-1.4c.663-.3,2.49.406,3.1.683a4.1,4.1,0,0,1,1.284.79c.488.517.422.834.157,1.425A19.316,19.316,0,0,0,21.2,7.578a193.291,193.291,0,0,1-9.562,20.17.552.552,0,0,0-.073.258.444.444,0,0,0-.479.056m6.093-4.147-1.25-1.963q.155-.313.31-.627l1.308,1.8-.368.786" transform="translate(0 0)" fill="#a191d9"/>
      <path id="Tracé_2226" data-name="Tracé 2226" d="M6.2,28.9a.4.4,0,0,1,.577-.312c.666.249.954-.818.294-1.064a1.5,1.5,0,0,0-1.893.955.472.472,0,0,0-.452.657L6.2,32.814c.262.65,1.33.366,1.064-.294L5.949,29.249A.47.47,0,0,0,6.2,28.9" transform="translate(-2.803 -16.435)" fill="#a191d9"/>
      <path id="Tracé_2227" data-name="Tracé 2227" d="M45.323,16.488l2.223-4.406a.553.553,0,0,0,.061-.284.453.453,0,0,0-.043-.5A3.518,3.518,0,0,0,45.281,9.8c-.694-.12-.992.943-.293,1.064a2.46,2.46,0,0,1,1.506.854L44.37,15.931c-.319.632.633,1.192.953.557" transform="translate(-26.533 -5.865)" fill="#a191d9"/>
      <path id="Tracé_2228" data-name="Tracé 2228" d="M23.256,64.417a.972.972,0,0,1-1.324.226c-.552-.436-1.338.34-.781.781a2.092,2.092,0,0,0,3.057-.45c.4-.589-.556-1.142-.953-.557" transform="translate(-12.553 -38.428)" fill="#a191d9"/>
      <path id="Tracé_2229" data-name="Tracé 2229" d="M33.864,48.592l.735-1.227a.552.552,0,0,0-.953-.557l-.735,1.227a.552.552,0,0,0,.953.557" transform="translate(-19.661 -27.874)" fill="#a191d9"/>
    </g>
  </g>
</svg>
