<?xml version="1.0" encoding="UTF-8"?>
<svg xmlns="http://www.w3.org/2000/svg" width="332.008" height="264.429" viewBox="0 0 332.008 264.429">
  <path id="_03_fleche" data-name="03_fleche" d="M373.067,141.659,361.6,130.192,317.976,86.569l-20.5,20.5,29.161,29.161c-19.8-.643-49.6-.282-80.188,5.02a.306.306,0,0,0-.11.016c-.831-4.988-1.992-10.635-3.467-16.816-.016-.047-.016-.094-.031-.141q-.541-2.259-1.129-4.612a128.665,128.665,0,0,0-10.149-26.824c-.392-.784-.8-1.553-1.239-2.306-.58-1.067-1.035-1.835-1.318-2.322-.078-.125-.157-.251-.235-.392-.094-.141-.141-.22-.141-.22a73,73,0,0,0-15.106-17.694c-7.514-6.353-17.145-10.165-28.643-11.294a71.1,71.1,0,0,0-34.071,4.769,91.843,91.843,0,0,0-28.361,18.6,155.924,155.924,0,0,0-22.839,27.624,260.267,260.267,0,0,0-17.835,31.89,329.042,329.042,0,0,0-12.863,31.2,433.819,433.819,0,0,0-17.788,68.031A394.939,394.939,0,0,0,44.8,309.831v1.176H83.42v-1.176a318.756,318.756,0,0,1,3.545-45.616A474.731,474.731,0,0,1,96.8,215.2a421.8,421.8,0,0,1,14.933-47.169,251.563,251.563,0,0,1,19.231-39.922c7.012-11.529,14.494-20.722,22.227-27.278a42.7,42.7,0,0,1,11.278-7.059A30.417,30.417,0,0,1,176.078,91.4c.267,0,.518,0,.769.016a19.054,19.054,0,0,1,14.337,6.949,53.543,53.543,0,0,1,9.631,16.831,133.837,133.837,0,0,1,5.678,20.047c1.192,6.133,2.071,11.169,2.6,15.012-3.137,1.051-6.243,2.259-9.224,3.576-.267.126-.549.235-.816.361-2.965,1.318-5.945,2.714-8.878,4.157A126.548,126.548,0,0,0,148,190.741q-2.776,3.247-5.318,6.557a126.54,126.54,0,0,0-20.157,37.3,86.557,86.557,0,0,0-3.984,30.667,73.556,73.556,0,0,0,7.012,28.361,50.757,50.757,0,0,0,18.353,20.863c8.047,5.224,17.929,7.984,29.412,8.22.565,0,1.129.016,1.694.016,11,0,20.565-2.133,28.455-6.337a61.962,61.962,0,0,0,20.69-17.725A95.674,95.674,0,0,0,237.129,274.8a154.9,154.9,0,0,0,7.153-25.427c1.584-8.329,2.714-15.953,3.373-22.667.674-6.871,1.114-11.8,1.38-15.027.188-1.773.361-3.561.5-5.333a302.349,302.349,0,0,0,.251-34.4,238.1,238.1,0,0,1,24.941-3.482,324.555,324.555,0,0,1,48.988-.392l-26.243,26.243,20.5,20.5L361.6,171.2l11.467-11.467a12.762,12.762,0,0,0,0-18.055ZM214.337,184.153c0,4.659-.314,12.282-.988,23.294a287.173,287.173,0,0,1-4.157,33.741,186.677,186.677,0,0,1-7.153,25.584c-2.933,8.157-6.745,14.651-11.294,19.31a19.316,19.316,0,0,1-14.275,6.086,26.4,26.4,0,0,1-3.294-.22,16.822,16.822,0,0,1-12.251-7.373,34.022,34.022,0,0,1-5.318-14.008,52.772,52.772,0,0,1-.392-14.369c1.851-14.839,7.7-28.973,17.38-41.992,1-1.349,2.055-2.682,3.137-3.984a2.728,2.728,0,0,1,.188-.22c.471-.565.941-1.114,1.459-1.663,9.129-10.337,20.988-18.808,35.294-25.255l1.663-.753Z" transform="translate(-44.8 -58.296)" fill="#c6cbf7"></path>
</svg>
