<?xml version="1.0" encoding="UTF-8"?>
<svg xmlns="http://www.w3.org/2000/svg" id="_3-Fleche_violet" data-name="3-Fleche_violet" width="618.926" height="705.073" viewBox="0 0 618.926 705.073">
  <path id="Intersection_2" data-name="Intersection 2" d="M465.718,703.989c-35.871-171.975-25.642-295.421-8.79-372.339L404.38,370.665l-41.125-55.389,123.926-92.008a27.474,27.474,0,0,1,38.437,5.681l24.746,33.331,67.262,90.594L562.237,394l-38.919-52.419c-3.235,14.121-6.279,30.294-8.748,48.524-8.923,65.876-11.739,171.106,19.591,313.886Zm-269.06,0c30.922-50.628,53.908-105.388,57.2-159.115a185.552,185.552,0,0,0-3.313-49.918L223.6,560.939l-63.864-26.085,58.36-142.887a27.476,27.476,0,0,1,35.824-15.048l38.429,15.7L396.8,435.281l-26.085,63.865-55.845-22.81c11.757,49.531,11.755,126.051-41.275,227.653ZM.457,526.477C5.137,421.525,45.6,339.743,117.482,289.97,250.159,198.1,315.99,133.558,347.852,95.6a311.794,311.794,0,0,0,20.24-26.61H299.43V0H453.776a27.475,27.475,0,0,1,27.475,27.474V181.82H412.263V122.159c-35.7,47-108.454,120.153-256.7,222.808-54.425,37.688-84.1,99.188-88.2,182.794-3.243,66.105,11.463,121.4,11.612,121.955L14.444,667.328C13.732,664.729-2.944,602.78.457,526.477Z" transform="translate(0.542 0.542)" fill="#c6cbf7"></path>
  <path id="Intersection_2_-_Outline" data-name="Intersection 2 - Outline" d="M745.982,2510.005H676.426l-.09-.43c-4.364-20.922-8.19-41.865-11.373-62.247-3.032-19.417-5.559-38.837-7.512-57.721a968.789,968.789,0,0,1-5.293-101.96c.155-53.511,5.229-103.708,15.081-149.225L615.416,2176.9l-.323-.435-41.448-55.823.435-.323,123.926-92.008a27.9,27.9,0,0,1,16.679-5.524,28.27,28.27,0,0,1,12.407,2.881,27.883,27.883,0,0,1,5.476,3.544,28.168,28.168,0,0,1,4.633,4.892l92.331,124.36-.435.323-55.824,41.448-38.54-51.909c-3.411,15.055-6.262,30.971-8.478,47.329-5.337,39.4-7.118,82.465-5.3,128.01,1.109,27.7,3.583,56.539,7.353,85.718,4.193,32.447,10.089,66.081,17.525,99.969Zm-68.675-1.083h67.328c-7.375-33.7-13.228-67.137-17.4-99.4-3.774-29.21-6.251-58.082-7.361-85.814-1.825-45.607-.041-88.739,5.3-128.2,2.277-16.806,5.223-33.148,8.757-48.573l.262-1.146,39.3,52.928,54.519-40.478-91.685-123.49a26.642,26.642,0,0,0-9.717-8.109,27.18,27.18,0,0,0-11.929-2.77,26.812,26.812,0,0,0-16.033,5.31l-123.491,91.685,40.479,54.518,53.275-39.554-.31,1.414c-10.038,45.815-15.207,96.419-15.363,150.409a967.646,967.646,0,0,0,5.287,101.845c1.951,18.865,4.476,38.267,7.5,57.665C669.192,2467.384,672.984,2488.162,677.307,2508.922Zm-192.232,1.083H406.841l.5-.824c7.95-13.017,15.183-26.012,21.5-38.625a413.264,413.264,0,0,0,17.418-39.678,319,319,0,0,0,12.24-40.242,248.437,248.437,0,0,0,5.964-40.32,186.968,186.968,0,0,0-2.944-48.031l-26.48,64.835-.5-.205-64.365-26.289.2-.5,58.36-142.887a28,28,0,0,1,36.53-15.345l143.389,58.567-.2.5-26.29,64.366-.5-.2-54.872-22.413c6.749,29.046,7.9,60.49,3.427,93.473-1.325,9.761-3.168,19.782-5.478,29.782-2.44,10.565-5.469,21.4-9,32.2-3.717,11.362-8.094,23-13.01,34.591-5.153,12.15-11.041,24.585-17.5,36.961Zm-76.3-1.083h75.646c6.386-12.253,12.21-24.563,17.311-36.591,4.9-11.563,9.27-23.172,12.977-34.5,3.523-10.769,6.543-21.571,8.976-32.1,2.3-9.969,4.14-19.955,5.46-29.684,4.511-33.24,3.284-64.9-3.648-94.1l-.243-1.025,56.318,23,25.675-62.861L464.859,2182.9a26.929,26.929,0,0,0-35.117,14.751l-58.155,142.385,62.86,25.675,27.41-67.111.365,1.725a186.861,186.861,0,0,1,3.324,50.062,249.508,249.508,0,0,1-5.99,40.5,320.086,320.086,0,0,1-12.281,40.38,414.377,414.377,0,0,1-17.464,39.782C423.616,2483.415,416.54,2496.155,408.771,2508.922Zm-183.559-35.455-.143-.521c-.713-2.6-17.413-64.591-14.006-141.019C215.752,2226.8,256.3,2144.871,328.322,2095c132.63-91.842,198.424-156.341,230.263-194.277A317.374,317.374,0,0,0,578.221,1875H510.036v-70.069H664.924a27.993,27.993,0,0,1,28.017,28.016v154.888H622.87v-58.6c-20.8,27.155-49.474,57.2-85.241,89.332-21.676,19.472-46.221,39.924-72.953,60.788-29.473,23-62.329,47.068-97.655,71.53-54.278,37.586-83.873,98.946-87.963,182.375a417.2,417.2,0,0,0,.425,46.806c.818,12.814,2.2,25.818,4.1,38.649a362.87,362.87,0,0,0,7.065,36.332l.141.522-.522.142ZM511.12,1873.918h69.135l-.565.844a314.788,314.788,0,0,1-20.275,26.657c-31.882,37.987-97.747,102.561-230.476,194.472-71.734,49.672-112.12,131.31-116.792,236.085-3.275,73.462,12.063,133.533,13.828,140.161l63.5-17.327c-1.494-5.8-14.576-58.769-11.494-121.6,4.107-83.783,33.859-145.425,88.429-183.214,35.309-24.45,68.149-48.5,97.605-71.493,26.713-20.848,51.238-41.284,72.9-60.739,36.277-32.59,65.237-63.024,86.076-90.457l.973-1.281v60.728h67.9v-153.8a26.91,26.91,0,0,0-26.933-26.932H511.12Z" transform="translate(-210.606 -1804.933)" fill="#c6cbf7"></path>
</svg>
