<?xml version="1.0" encoding="UTF-8"?>
<svg xmlns="http://www.w3.org/2000/svg" xmlns:xlink="http://www.w3.org/1999/xlink" id="fleche_contact" data-name="fleche contact" width="793" height="750.853" viewBox="0 0 793 750.853">
  <defs>
    <clipPath id="clip-path">
      <rect id="Rectangle_660" data-name="Rectangle 660" width="793" height="750.853" fill="#d3d7f9"></rect>
    </clipPath>
  </defs>
  <g id="Group_1085" data-name="Group 1085" clip-path="url(#clip-path)">
    <path id="Path_5669" data-name="Path 5669" d="M791.234,145.852a17.352,17.352,0,0,0-10.553-8.984L631.758,91.747a17.346,17.346,0,0,0-21.631,11.561l-7.536,24.813a17.351,17.351,0,0,0,11.573,21.649l54.373,16.465c-40.775,23.775-75.588,57.67-99.121,97.829A264.7,264.7,0,0,0,549.57,306.09c-38.538.029-77.649,11.31-111.951,32.372-2.719-4.245-5.5-8.611-8.261-13.026,72.2-51.784,108.659-147.767,87.251-234.486-11.174-45.257-37.562-77.123-72.4-87.421-54.856-16.2-106.437,25.974-127.13,73.9-25.411,58.855-21.374,132.132,11.359,206.321,1.768,4.011,3.612,8.027,5.554,12.09-4.976,1.635-9.879,3.138-14.54,4.5-21.218-36.724-58.26-58.788-107.966-64.085-17.626-1.887-79.345-4.326-133.779,43.156C28.846,322.052,2.7,389.443.008,479.719a15.891,15.891,0,0,0,15.41,16.361l37,1.1a15.715,15.715,0,0,0,11.373-4.314,15.916,15.916,0,0,0,4.987-11.1c2.1-70.344,20.328-120.984,54.165-150.509a108.644,108.644,0,0,1,81.255-26.59c18.248,1.945,32.464,7.042,42.933,15.451-36.435,10.894-72.953,25.642-103.452,53.986-27.613,25.665-43.809,57.786-45.6,90.444-2.289,41.694,21.071,81.466,56.812,96.72,28.485,12.148,63.036,8.706,92.414-9.195,20.354-12.393,37.637-30.589,54.4-57.266,26.57-42.283,39.46-87.335,36.992-128.418,9.062-2.658,19.042-5.808,29.208-9.521,5.328,8.611,10.764,17.126,16.283,25.671-27.523,29.422-50.949,66.769-69.746,111.228-24.966,59.043-31.378,109.457-19.606,154.127a147.741,147.741,0,0,0,47.724,74.5c22.5,18.615,48.53,28.454,75.268,28.454a105.85,105.85,0,0,0,12.009-.685c34.3-3.93,67.107-25.015,87.765-56.4,16.427-24.969,25.7-56.609,26.807-91.507,2.442-76.964-33.574-146.308-60.875-191.77-2.684-4.467-5.557-9.157-8.669-14.153a150.258,150.258,0,0,1,58.855-20.577c-4.444,46.638,2.829,94.223,21,135.882,14.335,32.852,34.828,52.128,60.912,57.286,38.966,7.692,72.234-20.889,86.681-50.7,32.1-66.272-.849-156.346-70.517-192.763-4.328-2.265-8.8-4.346-13.39-6.233a195.547,195.547,0,0,1,10.374-20.386c17.222-29.393,42.592-54.281,72.335-72.023L679.43,283.2a17.35,17.35,0,0,0,9.983,22.429l24.212,9.281a17.338,17.338,0,0,0,22.406-9.978L791.843,159.7a17.355,17.355,0,0,0-.61-13.847m-162.5,355.357c-1.8-1.245-6.048-5.814-10.963-17.08C604.839,454.473,599.308,420.76,601.7,387.4c35.675,19.889,54.454,68.3,38.694,100.835-3.482,7.184-9.091,11.972-11.654,12.977M422.781,442.992q.893,1.474,1.763,2.916c36.279,60.415,52.512,109.4,51.091,154.17-.7,22.189-6.062,41.509-15.514,55.87-9.579,14.558-23.833,24.229-38.134,25.867-19.135,2.2-50.882-14.445-60.635-51.443-7.741-29.4-2.364-65.313,16.447-109.807,12.8-30.271,27.884-56.277,44.982-77.573m-31.4-187.01c-14.433-32.7-35.071-95.847-11.142-151.278,8.53-19.753,26.5-35.822,40.058-35.822a15.209,15.209,0,0,1,4.4.624c12.535,3.7,21.365,22.752,25.116,37.934,13.9,56.309-9.209,120.906-54.4,157.381-1.4-2.962-2.739-5.9-4.034-8.839m-209.5,242.01c-9.174-3.912-15.815-16.944-15.11-29.67.8-14.569,9.449-30.54,23.738-43.818,21.129-19.635,49.186-30.543,79.431-39.388-2.338,30.15-16.9,57.809-26.5,73.092-10.876,17.311-21.025,28.468-31.933,35.111-10.157,6.184-21.787,8.021-29.63,4.673" transform="translate(0.001 -0.001)" fill="#d3d7f9"></path>
  </g>
</svg>
