<?xml version="1.0" encoding="UTF-8"?>
<svg xmlns="http://www.w3.org/2000/svg" xmlns:xlink="http://www.w3.org/1999/xlink" id="Fleche_methode" data-name="Fleche methode" width="900.014" height="568.498" viewBox="0 0 900.014 568.498">
  <defs>
    <clipPath id="clip-path">
      <rect id="Rectangle_661" data-name="Rectangle 661" width="900.014" height="568.498" fill="#eff1fd"></rect>
    </clipPath>
  </defs>
  <g id="Group_1087" data-name="Group 1087" clip-path="url(#clip-path)">
    <path id="Path_5670" data-name="Path 5670" d="M833.492,242.125c-29.182-3.657-70.989-6.3-124.265-7.874-13.579-.4-25.721-.712-36.552-.993-10.986-.286-21.232-.551-30.281-.851,19.26-26.392,43.9-69.62,50.619-136.649l40.626,42.9a12.241,12.241,0,0,0,17.316.464l16.969-16.1a12.245,12.245,0,0,0,.461-17.3L671.852,3.824A12.241,12.241,0,0,0,662.964,0h-.115a12.252,12.252,0,0,0-8.929,3.99L559.3,107.68a12.24,12.24,0,0,0,.783,17.288l17.267,15.783a12.239,12.239,0,0,0,8.261,3.2c.183,0,.368,0,.556-.011a12.251,12.251,0,0,0,8.487-3.979l40.176-44.043c-7.825,64.929-35.981,99.2-52.714,119.522-11.588,14.076-24.72,30.03-15.423,50.406,9.016,19.762,31.563,21.767,43.672,22.847,2.907.256,6.068.483,9.532.685q-28.428,1.833-61.629,3.633c-63.746,3.434-109.589,6.87-140.146,10.5-15.483,1.841-26.981,3.734-35.161,5.793-26.04,6.556-31.681,21.45-31.831,32.793-.363,28.563,31.378,34.34,48.429,37.443,15.6,2.839,37.8,5.768,67.88,8.954,30.941,3.278,67.37,6.535,106.949,9.846C470,405.612,343,411.1,213.72,413.894c-49.078,1.064-84.38,2.468-107.92,4.3a260.965,260.965,0,0,0-27.412,3.226c-26.286,5.059-30.786,21.3-31.132,30.53-1.028,27.513,28.419,33.08,41,35.458,11.237,2.122,27.142,4.407,48.625,6.99,35.406,4.257,80.846,8.727,129.5,13.432l-11.654.245c-122.555,2.515-241.294,2.542-242.48,2.542A12.244,12.244,0,0,0,0,522.864v33.391A12.244,12.244,0,0,0,12.243,568.5c1.3,0,131.59-.033,260.439-2.913,75.928-1.7,136.625-4.039,180.4-6.963,71.576-4.778,106.125-8.444,109.349-39.314,3.166-30.35-30.532-37.462-46.724-40.88C495.027,474.059,400.351,469.545,359.2,465c74.079-3.319,203.346-7.44,261.577-12.057,55.313-4.386,99.094-9.036,130.131-13.825,35.226-5.438,71.649-11.059,72.552-41.99.846-29.04-31.6-35.327-43.82-37.691-15.385-2.981-38.436-5.711-68.516-8.119l-34.877-2.785c-10.926-.873-82.1-1.762-93.389-2.667,63.222-4.32,176.073-9.191,215.341-14.354,26.493-3.486,47.1-7.137,61.255-10.852,11.185-2.937,40.891-10.737,40.561-38.038-.393-32.21-38.613-37-66.519-40.492" fill="#eff1fd"></path>
  </g>
</svg>
