<?xml version="1.0" encoding="UTF-8"?>
<svg xmlns="http://www.w3.org/2000/svg" id="Jour_J" data-name="Jour J" width="416" height="269" viewBox="0 0 416 269">
  <rect id="Rectangle_478" data-name="Rectangle 478" width="416" height="269" rx="17" fill="#27454f"></rect>
  <rect id="Rectangle_510" data-name="Rectangle 510" width="342" height="217" rx="3" transform="translate(37 27)" fill="#fff"></rect>
  <path id="Rectangle_511" data-name="Rectangle 511" d="M3,0H339a3,3,0,0,1,3,3V14a0,0,0,0,1,0,0H0a0,0,0,0,1,0,0V3A3,3,0,0,1,3,0Z" transform="translate(37 27)" fill="#eceff0"></path>
  <circle id="Ellipse_33" data-name="Ellipse 33" cx="2.5" cy="2.5" r="2.5" transform="translate(42 31)" fill="#ed6b5f"></circle>
  <circle id="Ellipse_34" data-name="Ellipse 34" cx="2.5" cy="2.5" r="2.5" transform="translate(50 31)" fill="#f5c050"></circle>
  <circle id="Ellipse_35" data-name="Ellipse 35" cx="2.5" cy="2.5" r="2.5" transform="translate(58 31)" fill="#62c554"></circle>
  <rect id="Rectangle_634" data-name="Rectangle 634" width="159" height="81" transform="translate(48 70)" fill="#f2f2f2"></rect>
  <rect id="Rectangle_639" data-name="Rectangle 639" width="159" height="80" transform="translate(48 154)" fill="#f2f2f2"></rect>
  <rect id="Rectangle_637" data-name="Rectangle 637" width="158" height="81" transform="translate(211 70)" fill="#f2f2f2"></rect>
  <rect id="Rectangle_638" data-name="Rectangle 638" width="158" height="80" transform="translate(211 154)" fill="#f2f2f2"></rect>
  <rect id="Rectangle_698" data-name="Rectangle 698" width="48" height="18" rx="2" transform="translate(321 46)" fill="#c1423f"></rect>
  <text id="Quitter" transform="translate(353 57)" fill="#fff" font-size="6" font-family="Sora-Medium, Sora" font-weight="500">
    <tspan x="-11" y="0">Quitter</tspan>
  </text>
  <path id="Icon_ion-call" data-name="Icon ion-call" d="M9.073,10.759a3.579,3.579,0,0,1-1.671-.57A10.867,10.867,0,0,1,4.777,8.226,9.961,9.961,0,0,1,2.806,5.6c-.7-1.273-.58-1.94-.447-2.225a1.776,1.776,0,0,1,.7-.747A3.348,3.348,0,0,1,3.6,2.342l.052-.023a.508.508,0,0,1,.417-.038,1.221,1.221,0,0,1,.4.3,6.585,6.585,0,0,1,.991,1.471,1.465,1.465,0,0,1,.194.6.952.952,0,0,1-.242.566l-.074.1c-.145.19-.176.245-.155.343a3.6,3.6,0,0,0,.877,1.3,3.454,3.454,0,0,0,1.286.856c.1.022.158-.011.354-.161l.087-.066a.957.957,0,0,1,.575-.257h0a1.376,1.376,0,0,1,.605.212,7.255,7.255,0,0,1,1.465.983,1.221,1.221,0,0,1,.3.4.512.512,0,0,1-.038.418l-.023.052a3.352,3.352,0,0,1-.29.543,1.776,1.776,0,0,1-.748.695,1.281,1.281,0,0,1-.561.123Z" transform="matrix(-0.695, 0.719, -0.719, -0.695, 341.702, 55.04)" fill="#fff"></path>
  <circle id="Ellipse_64" data-name="Ellipse 64" cx="26" cy="26" r="26" transform="translate(102 85)" fill="#fff"></circle>
  <circle id="Ellipse_66" data-name="Ellipse 66" cx="26" cy="26" r="26" transform="translate(102 168)" fill="#fff"></circle>
  <circle id="Ellipse_65" data-name="Ellipse 65" cx="26" cy="26" r="26" transform="translate(264 85)" fill="#fff"></circle>
  <circle id="Ellipse_67" data-name="Ellipse 67" cx="26" cy="26" r="26" transform="translate(264 168)" fill="#fff"></circle>
  <text id="TE" transform="translate(128 118)" font-size="20" font-family="Sora-Light, Sora" font-weight="300">
    <tspan x="-11" y="0">TE</tspan>
  </text>
  <text id="AM" transform="translate(290 118)" font-size="20" font-family="Sora-Light, Sora" font-weight="300">
    <tspan x="-16" y="0">AM</tspan>
  </text>
  <text id="MD" transform="translate(290 201)" font-size="20" font-family="Sora-Light, Sora" font-weight="300">
    <tspan x="-17" y="0">MD</tspan>
  </text>
  <text id="LC" transform="translate(128 201)" font-size="20" font-family="Sora-Light, Sora" font-weight="300">
    <tspan x="-13" y="0">LC</tspan>
  </text>
</svg>
