<?xml version="1.0" encoding="UTF-8"?>
<svg xmlns="http://www.w3.org/2000/svg" xmlns:xlink="http://www.w3.org/1999/xlink" id="LeadActiv_blanc" data-name="LeadActiv blanc" width="103.599" height="19.687" viewBox="0 0 103.599 19.687">
  <defs>
    <clipPath id="clip-path">
      <rect id="Rectangle_63" data-name="Rectangle 63" width="103.599" height="19.687" fill="#fff"></rect>
    </clipPath>
  </defs>
  <g id="Group_18" data-name="Group 18" clip-path="url(#clip-path)">
    <path id="Path_17" data-name="Path 17" d="M426.667,6.371c-.324.015-.653.037-.979.066-.078-.478-.2-1.038-.355-1.666a9.567,9.567,0,0,0-.755-1.995,5.472,5.472,0,0,0-1.341-1.705,3.8,3.8,0,0,0-2.13-.84,5.287,5.287,0,0,0-2.533.355,6.829,6.829,0,0,0-2.109,1.383,11.6,11.6,0,0,0-1.7,2.054A19.354,19.354,0,0,0,413.441,6.4a24.469,24.469,0,0,0-.956,2.32,32.264,32.264,0,0,0-1.323,5.059,29.364,29.364,0,0,0-.47,5.136V19h2.872V18.91a23.706,23.706,0,0,1,.264-3.392,35.309,35.309,0,0,1,.731-3.645,31.357,31.357,0,0,1,1.11-3.507A18.7,18.7,0,0,1,417.1,5.4a8.3,8.3,0,0,1,1.653-2.028,3.175,3.175,0,0,1,.839-.525,2.262,2.262,0,0,1,.863-.176h.057a1.417,1.417,0,0,1,1.066.517,3.981,3.981,0,0,1,.716,1.252,9.953,9.953,0,0,1,.422,1.491c.089.456.154.83.194,1.116-.233.078-.464.168-.686.266-.24.106-.483.219-.721.336a9.41,9.41,0,0,0-3.136,2.409,9.727,9.727,0,0,0-1.894,3.261,6.437,6.437,0,0,0-.3,2.28,5.471,5.471,0,0,0,.521,2.109,3.775,3.775,0,0,0,1.365,1.551,4.106,4.106,0,0,0,2.187.611h.126a4.464,4.464,0,0,0,2.116-.471,4.608,4.608,0,0,0,1.538-1.318,7.114,7.114,0,0,0,.965-1.774,11.519,11.519,0,0,0,.532-1.891c.118-.619.2-1.186.251-1.685s.083-.877.1-1.117A19.2,19.2,0,0,0,425.97,8.9c.251-.029.513-.055.781-.077a7.171,7.171,0,0,1,.941-.012l.091,0,.031-2.466h-.089c-.345,0-.7.008-1.059.026M423.3,9.565c0,.346-.023.913-.073,1.732a21.356,21.356,0,0,1-.309,2.509,13.885,13.885,0,0,1-.532,1.9,3.946,3.946,0,0,1-.84,1.436,1.436,1.436,0,0,1-1.061.453,1.963,1.963,0,0,1-.245-.016,1.251,1.251,0,0,1-.911-.548,2.53,2.53,0,0,1-.4-1.042,3.922,3.922,0,0,1-.029-1.068,6.564,6.564,0,0,1,1.292-3.122,7.424,7.424,0,0,1,2.98-2.314l.124-.056Z" transform="translate(-362.789 -0.182)" fill="#fff"></path>
    <rect id="Rectangle_61" data-name="Rectangle 61" width="2.792" height="18.861" fill="#fff"></rect>
    <path id="Path_18" data-name="Path 18" d="M39.386,44.1c-3.993,0-6.736,2.719-6.736,6.957s2.866,6.981,6.736,6.981a6.167,6.167,0,0,0,6.2-4.238H42.571a3.267,3.267,0,0,1-3.184,1.886,3.713,3.713,0,0,1-3.846-3.576H45.853a8.6,8.6,0,0,0,.1-1.372A6.3,6.3,0,0,0,39.386,44.1m-3.821,5.756a3.676,3.676,0,0,1,3.7-3.4,3.5,3.5,0,0,1,3.772,3.4Z" transform="translate(-28.842 -38.957)" fill="#fff"></path>
    <path id="Path_19" data-name="Path 19" d="M166.064,46.282a5.745,5.745,0,0,0-4.679-2.18c-3.552,0-6.369,2.743-6.369,6.908s2.817,7.03,6.32,7.03a5.809,5.809,0,0,0,4.728-2.229v2.009h2.817v-13.5h-2.817Zm-4.091,9.333c-2.082,0-4.091-1.69-4.091-4.605a4.141,4.141,0,0,1,4.091-4.483,4.185,4.185,0,0,1,4.091,4.532c0,2.915-1.984,4.556-4.091,4.556" transform="translate(-136.936 -38.958)" fill="#fff"></path>
    <path id="Path_20" data-name="Path 20" d="M293.244,12.816a6.217,6.217,0,0,0-4.654-2.107c-3.576,0-6.393,2.743-6.393,6.908s2.817,7.03,6.369,7.03a5.6,5.6,0,0,0,4.679-2.253v2.033h2.817V6.3h-2.817Zm-4.091,9.406c-2.082,0-4.091-1.69-4.091-4.605a4.141,4.141,0,0,1,4.091-4.483,4.185,4.185,0,0,1,4.091,4.532c0,2.915-1.984,4.556-4.091,4.556" transform="translate(-249.281 -5.565)" fill="#fff"></path>
    <path id="Path_21" data-name="Path 21" d="M565.4,46.453a3.154,3.154,0,0,1,3.209,2.131h3.013c-.759-2.841-2.915-4.483-6.222-4.483-3.87,0-6.614,2.743-6.614,6.957,0,4.238,2.743,6.981,6.614,6.981a6.062,6.062,0,0,0,6.222-4.483h-3.013a3.082,3.082,0,0,1-3.209,2.131c-2.253,0-3.748-1.666-3.748-4.63,0-2.939,1.494-4.605,3.748-4.605" transform="translate(-493.606 -38.958)" fill="#fff"></path>
    <path id="Path_22" data-name="Path 22" d="M680.647,17.221H677.83v13.1c0,2.743,1.494,3.748,3.895,3.748h2.2V31.747h-1.715c-1.176,0-1.568-.416-1.568-1.421V22.855h3.282V20.577h-3.282Z" transform="translate(-598.768 -15.212)" fill="#fff"></path>
    <path id="Path_23" data-name="Path 23" d="M737.63.076a1.767,1.767,0,0,0-1.788,1.788,1.776,1.776,0,1,0,3.552,0A1.762,1.762,0,0,0,737.63.076" transform="translate(-650.013 -0.067)" fill="#fff"></path>
    <rect id="Rectangle_62" data-name="Rectangle 62" width="2.792" height="13.497" transform="translate(86.196 5.373)" fill="#fff"></rect>
    <path id="Path_24" data-name="Path 24" d="M782.271,45.991l-3.821,11-3.821-11H771.64l5.12,13.5h3.332l5.144-13.5Z" transform="translate(-681.636 -40.627)" fill="#fff"></path>
  </g>
</svg>
