<?xml version="1.0" encoding="UTF-8"?>
<svg xmlns="http://www.w3.org/2000/svg" id="Linkedin_icon_black" data-name="Linkedin icon black" width="11.305" height="11.305" viewBox="0 0 11.305 11.305">
  <path id="Path_5641" data-name="Path 5641" d="M14.277,4H5.028A1.027,1.027,0,0,0,4,5.028v9.25A1.027,1.027,0,0,0,5.028,15.3h9.25A1.027,1.027,0,0,0,15.3,14.277V5.028A1.027,1.027,0,0,0,14.277,4Zm-6.7,9.25H6.058V8.372H7.573ZM6.8,7.675a.884.884,0,1,1,.883-.884A.884.884,0,0,1,6.8,7.675Zm6.452,5.575H11.737V10.878c0-.566-.01-1.293-.788-1.293s-.91.616-.91,1.252V13.25H8.524V8.372H9.978v.666H10a1.593,1.593,0,0,1,1.434-.788c1.535,0,1.819,1.01,1.819,2.324Z" transform="translate(-4 -4)" fill="#100711"></path>
</svg>
